<svg width="19" height="16" viewBox="0 0 19 16" fill="none" xmlns="http://www.w3.org/2000/svg">
<path d="M14.3 2.3999H17.8" stroke="black" stroke-linecap="round" stroke-linejoin="round"/>
<path d="M1 2.3999H11.5" stroke="black" stroke-linecap="round" stroke-linejoin="round"/>
<path d="M14.3 13.6001H17.8" stroke="black" stroke-linecap="round" stroke-linejoin="round"/>
<path d="M1 13.6001H11.5" stroke="black" stroke-linecap="round" stroke-linejoin="round"/>
<path d="M7.30005 8H17.8" stroke="black" stroke-linecap="round" stroke-linejoin="round"/>
<path d="M1 8H4.5" stroke="black" stroke-linecap="round" stroke-linejoin="round"/>
<path d="M12.9 3.8C13.6732 3.8 14.3 3.1732 14.3 2.4C14.3 1.6268 13.6732 1 12.9 1C12.1268 1 11.5 1.6268 11.5 2.4C11.5 3.1732 12.1268 3.8 12.9 3.8Z" stroke="black" stroke-linecap="round" stroke-linejoin="round"/>
<path d="M5.9 9.4001C6.6732 9.4001 7.3 8.7733 7.3 8.0001C7.3 7.2269 6.6732 6.6001 5.9 6.6001C5.1268 6.6001 4.5 7.2269 4.5 8.0001C4.5 8.7733 5.1268 9.4001 5.9 9.4001Z" stroke="black" stroke-linecap="round" stroke-linejoin="round"/>
<path d="M12.9 15C13.6732 15 14.3 14.3731 14.3 13.6C14.3 12.8268 13.6732 12.2 12.9 12.2C12.1268 12.2 11.5 12.8268 11.5 13.6C11.5 14.3731 12.1268 15 12.9 15Z" stroke="black" stroke-linecap="round" stroke-linejoin="round"/>
</svg>
