<svg width="34" height="29" viewBox="0 0 34 29" fill="none" xmlns="http://www.w3.org/2000/svg">
<g clip-path="url(#clip0)">
<path d="M33.4659 23.5505L20.0855 1.79182C19.7629 1.26717 19.3096 0.833607 18.7693 0.532765C18.229 0.231923 17.6197 0.0739136 17 0.0739136C16.3803 0.0739136 15.7711 0.231923 15.2307 0.532765C14.6904 0.833607 14.2371 1.26717 13.9145 1.79182L0.534094 23.5505C0.199985 24.0938 0.0177947 24.7155 0.00624638 25.3518C-0.00530199 25.9881 0.154208 26.6159 0.468384 27.1708C0.78256 27.7257 1.24007 28.1876 1.79389 28.5091C2.34771 28.8305 2.97787 29 3.6196 29H30.3804C31.0221 29 31.6523 28.8305 32.2061 28.5091C32.7599 28.1876 33.2174 27.7257 33.5316 27.1708C33.8458 26.6159 34.0053 25.9881 33.9938 25.3518C33.9822 24.7155 33.8 24.0938 33.4659 23.5505ZM22.4213 23.087C21.6147 24.4721 20.3002 25.495 18.7517 25.9426C17.2033 26.3902 15.5403 26.2279 14.1095 25.4896C12.6788 24.7512 11.5906 23.4938 11.0717 21.9794C10.5529 20.4649 10.6435 18.8104 11.3247 17.3606C11.5567 16.8555 11.8347 16.3725 12.1552 15.9175L17 8.13148L21.6958 15.6219C21.9765 15.9822 22.4787 16.943 22.6751 17.36C23.1002 18.2645 23.2992 19.2573 23.255 20.2543C23.2108 21.2513 22.9249 22.223 22.4213 23.087Z" fill="url(#paint0_linear)"/>
<path opacity="0.1" d="M17.0892 7.9735L16.0457 9.59957L12.617 3.98224L13.5115 2.504L17.0892 7.9735Z" fill="#3F3F3F"/>
<path d="M33.4659 23.4766L20.0855 1.71792C19.7629 1.19327 19.3097 0.7597 18.7693 0.458856C18.229 0.158011 17.6197 0 17 0C16.3803 0 15.7711 0.158011 15.2307 0.458856C14.6904 0.7597 14.2371 1.19327 13.9145 1.71792L13.4497 2.47368L16.9936 8.14177L17 8.1315L21.6958 15.6219C21.9765 15.9823 22.4788 16.943 22.6751 17.36C23.0425 18.1424 23.2415 18.9921 23.2592 19.855C23.277 20.7179 23.1131 21.575 22.7782 22.3716C22.4433 23.1682 21.9445 23.8868 21.3139 24.4816C20.6832 25.0764 19.9345 25.5343 19.1154 25.8261L13.2967 28.9261H30.3804C31.0221 28.9261 31.6523 28.7566 32.2061 28.4352C32.7599 28.1137 33.2175 27.6518 33.5316 27.0969C33.8458 26.542 34.0053 25.9142 33.9938 25.2779C33.9822 24.6416 33.8 24.0199 33.4659 23.4766Z" fill="url(#paint1_linear)"/>
<path opacity="0.11" d="M16.9493 26.1529C16.4358 26.1523 15.9244 26.089 15.4264 25.9645L9.48651 28.9645H13.2133L18.4667 26.112L18.3033 26.0049C17.8587 26.1028 17.4047 26.1525 16.9493 26.1529Z" fill="#3F3F3F"/>
</g>
<defs>
<linearGradient id="paint0_linear" x1="9.83386" y1="35.4223" x2="28.1866" y2="7.29083" gradientUnits="userSpaceOnUse">
<stop stop-color="#2ABAFF"/>
<stop offset="0.1726" stop-color="#25AFFF"/>
<stop offset="0.47694" stop-color="#1891FF"/>
<stop offset="0.87489" stop-color="#0262FF"/>
<stop offset="0.91034" stop-color="#005DFF"/>
</linearGradient>
<linearGradient id="paint1_linear" x1="1512.69" y1="1773.25" x2="6272.31" y2="5388.28" gradientUnits="userSpaceOnUse">
<stop stop-color="#2ABAFF"/>
<stop offset="0.1726" stop-color="#25AFFF"/>
<stop offset="0.47694" stop-color="#1891FF"/>
<stop offset="0.87489" stop-color="#0262FF"/>
<stop offset="0.91034" stop-color="#005DFF"/>
</linearGradient>
<clipPath id="clip0">
<rect width="34" height="29" fill="white"/>
</clipPath>
</defs>
</svg>
