<svg width="16" height="16" viewBox="0 0 16 16" fill="none" xmlns="http://www.w3.org/2000/svg">
<path d="M6.72724 1.17749C5.5945 1.17749 4.48719 1.51339 3.54536 2.14271C2.60352 2.77203 1.86944 3.6665 1.43596 4.71302C1.00248 5.75954 0.889063 6.9111 1.11005 8.02208C1.33104 9.13305 1.8765 10.1536 2.67747 10.9545C3.47844 11.7555 4.49893 12.301 5.60991 12.522C6.72088 12.7429 7.87244 12.6295 8.91895 12.196C9.96547 11.7626 10.8599 11.0285 11.4893 10.0866C12.1186 9.14479 12.4545 8.03749 12.4545 6.90474C12.4544 5.38581 11.8509 3.92912 10.7769 2.85507C9.70285 1.78102 8.24616 1.17759 6.72724 1.17749V1.17749Z" stroke="#777777" stroke-miterlimit="10"/>
<path d="M11.0001 11.1777L15 15.1776" stroke="#777777" stroke-miterlimit="10" stroke-linecap="round"/>
</svg>
