<svg width="87" height="105" viewBox="0 0 87 105" fill="none" xmlns="http://www.w3.org/2000/svg">
<path d="M1.60527 101V91.0059H2.76738V99.9473H7.17656V101H1.60527ZM34.6256 91.0059V97.4727C34.6256 98.612 34.2815 99.5075 33.5934 100.159C32.9052 100.811 31.9596 101.137 30.7564 101.137C29.5533 101.137 28.6214 100.809 27.9605 100.152C27.3043 99.4961 26.9762 98.5938 26.9762 97.4453V91.0059H28.1383V97.5273C28.1383 98.3613 28.3661 99.0016 28.8219 99.4482C29.2776 99.8949 29.9475 100.118 30.8316 100.118C31.6747 100.118 32.3242 99.8949 32.7799 99.4482C33.2356 98.9971 33.4635 98.3522 33.4635 97.5137V91.0059H34.6256ZM55.4779 101V91.0059H56.64V101H55.4779ZM85.3947 101H84.0686L78.6066 92.6123H78.552C78.6249 93.5967 78.6613 94.499 78.6613 95.3193V101H77.5881V91.0059H78.9006L84.3488 99.3594H84.4035C84.3944 99.2363 84.3739 98.8421 84.342 98.1768C84.3101 97.5068 84.2987 97.0283 84.3078 96.7412V91.0059H85.3947V101Z" fill="white"/>
<g clip-path="url(#clip0)">
<path d="M84.655 59.7745L50.9582 4.37404C50.1457 3.03822 49.0043 1.9343 47.6435 1.16831C46.2827 0.402317 44.7483 0 43.1877 0C41.6271 0 40.0928 0.402317 38.732 1.16831C37.3712 1.9343 36.2298 3.03822 35.4173 4.37404L34.2468 6.29831L43.1716 20.73L43.1877 20.7039L55.0134 39.7754C55.7205 40.6929 56.9852 43.1391 57.4797 44.2009C58.405 46.1929 58.906 48.3565 58.9507 50.5535C58.9954 52.7505 58.5829 54.9328 57.7393 56.961C56.8958 58.9892 55.6399 60.8189 54.0516 62.3333C52.4634 63.8477 50.5777 65.0136 48.515 65.7566L33.8615 73.6496H76.8845C78.5006 73.6496 80.0876 73.2182 81.4823 72.3997C82.8771 71.5811 84.0292 70.405 84.8204 68.9922C85.6117 67.5794 86.0134 65.9809 85.9843 64.3609C85.9552 62.7409 85.4964 61.1578 84.655 59.7745Z" fill="white"/>
<path d="M38.7613 66.3168C36.5341 65.7233 34.4637 64.6475 32.696 63.1652C30.9283 61.6829 29.5061 59.8301 28.5298 57.7373C27.5534 55.6444 27.0465 53.3625 27.0447 51.052C27.043 48.7416 27.5464 46.4588 28.5197 44.3645C29.104 43.0786 29.8041 41.8488 30.6112 40.6903L40.5184 24.5932L31.6197 10.3508L1.34504 60.1249C0.503633 61.5082 0.0448091 63.0912 0.0157259 64.7112C-0.0133573 66.3312 0.388349 67.9298 1.17956 69.3426C1.97077 70.7554 3.12295 71.9315 4.51768 72.75C5.91241 73.5686 7.49938 74 9.1155 74H23.8985L38.7613 66.3168Z" fill="white"/>
</g>
<defs>
<clipPath id="clip0">
<rect width="86" height="74" fill="white"/>
</clipPath>
</defs>
</svg>
